<svg width="56" height="57" viewBox="0 0 56 57" fill="none" xmlns="http://www.w3.org/2000/svg">
<path d="M55.0067 26.621L49.7182 24.172C49.3393 23.9962 48.9267 23.9045 48.5089 23.9032C48.0911 23.902 47.6781 23.9912 47.2981 24.1647L29.202 32.4249C28.8249 32.5967 28.4153 32.6856 28.0008 32.6856C27.5863 32.6856 27.1767 32.5967 26.7996 32.4249L8.70079 24.1652C8.32086 23.9916 7.90776 23.9024 7.48996 23.9037C7.07217 23.9049 6.65961 23.9966 6.28073 24.1724L0.992664 26.6215C0.225568 26.9777 0.229196 28.0628 0.998558 28.4145L26.7996 40.1898C27.1765 40.3623 27.5862 40.4516 28.0008 40.4516C28.4154 40.4516 28.8251 40.3623 29.202 40.1898L55.0017 28.4145C55.7715 28.0624 55.7743 26.9773 55.0067 26.621Z" fill="#61D0FF"/>
<path d="M55.0067 41.634L49.7182 38.911C49.3392 38.7161 48.9267 38.6145 48.5089 38.6131C48.0912 38.6117 47.6782 38.7106 47.2981 38.9029L29.202 48.0799C28.8251 48.2716 28.4154 48.3708 28.0008 48.3708C27.5862 48.3708 27.1765 48.2716 26.7996 48.0799L8.70079 38.9029C8.32077 38.7105 7.90771 38.6115 7.48997 38.6129C7.07222 38.6143 6.6597 38.716 6.28073 38.911L0.992664 41.634C0.225568 42.0278 0.229196 43.2334 0.998558 43.6242L26.7996 56.7092C27.1765 56.9008 27.5862 57 28.0008 57C28.4154 57 28.8251 56.9008 29.202 56.7092L55.0017 43.6242C55.7715 43.2334 55.7743 42.0278 55.0067 41.634Z" fill="#61D0FF"/>
<path d="M55.007 12.0518L29.4056 0.306485C28.9653 0.10459 28.4858 0 28.0004 0C27.515 0 27.0355 0.10459 26.5952 0.306485L0.994255 12.0518C0.225338 12.4035 0.228965 13.4776 0.998335 13.8267L26.7979 25.4828C27.1749 25.6536 27.5848 25.7419 27.9995 25.7419C28.4142 25.7419 28.8241 25.6536 29.2012 25.4828L55.002 13.8267C55.7719 13.4772 55.7737 12.4035 55.007 12.0518Z" fill="#61D0FF"/>
</svg>
